<svg xmlns="http://www.w3.org/2000/svg" width="32" height="32" viewBox="0 0 8.467 8.467"><g transform="translate(0 -288.533)"><path fill="#3b3c3d" fill-rule="evenodd" d="m 4.2131724,288.86854 a 1.1244792,1.1244793 0 0 0 -1.0939727,0.97202 1.1244792,1.1244793 0 0 0 0.3214158,0.9493 l 0.1648619,0.53539 a 0.45520593,0.45520596 0 0 0 0.3632729,0.31469 l 0,2.4443 0.5291667,0 0,-2.44377 a 0.45520593,0.45520596 0 0 0 0.3638021,-0.31522 l 0.1648354,-0.53745 a 1.1244792,1.1244793 0 0 0 0.3152511,-0.98703 1.1244792,1.1244793 0 0 0 -1.1286332,-0.93223 z"/><path fill="#3b3c3d" d="M3.4398218 294.81412l0-.0661a.46302085.46302088 0 01.4630208-.46303l.6614584 0a.46302085.46302088 0 01.4630208.46303l0 .0661M3.0429468 295.5345l0-.0661a.46302085.46302088 0 01.4630208-.46302l1.4552084 0a.46302085.46302088 0 01.4630208.46302l0 .0661M3.0427086 295.73892a.52916668.52916672 0 00-.5291666.52917l0 .39687.2645833 0 0-.39687.2645833 0 0 .39687.2645834 0 0-.39687.2645833 0 0 .39687.2645834 0 0-.39687.2645833 0 0 .39687.2645833 0 0-.39687.2645834 0 0 .39687.2645833 0 0-.39687.2645834 0 0 .39687.2645833 0 0-.39687.2645833 0 0 .39687.2645834 0 0-.39687a.52916668.52916672 0 00-.5291667-.52917z"/></g></svg>